<?xml version="1.0" encoding="UTF-8"?>
<svg width="39px" height="40px" viewBox="0 0 39 40" version="1.1" xmlns="http://www.w3.org/2000/svg" xmlns:xlink="http://www.w3.org/1999/xlink">
    <!-- Generator: Sketch 41.1 (35376) - http://www.bohemiancoding.com/sketch -->
    <title>search-icon@2x</title>
    <desc>Created with Sketch.</desc>
    <defs></defs>
    <g id="Symbols" stroke="none" stroke-width="1" fill="none" fill-rule="evenodd">
        <g id="search-icon">
            <g>
                <polygon id="Fill-1" fill="#212121" points="28.7772193 32.6446162 13.685858 17.5821335 17.1028803 14.1704832 32.1948261 29.2335493"></polygon>
                <g id="Group-8" transform="translate(0.000000, 0.155706)">
                    <path d="M30.664297,37.3066993 L22.7091699,29.3673784 C21.1105459,27.7712301 21.1105459,25.1839064 22.7091699,23.5877581 L23.2767253,23.0218722 C24.8753493,21.4257239 27.468218,21.4257239 29.066842,23.0218722 L37.0213846,30.9611931 C38.6205931,32.5573414 38.6205931,35.1446651 37.0213846,36.74023 L36.4544138,37.3066993 C34.8552053,38.9022642 32.262921,38.9022642 30.664297,37.3066993" id="Fill-2" fill="#212121"></path>
                    <path d="M24.5492534,12.6788196 C24.5492534,19.4449482 19.0537276,24.9299578 12.2746267,24.9299578 C5.49552572,24.9299578 0,19.4449482 0,12.6788196 C0,5.91269099 5.49552572,0.427681401 12.2746267,0.427681401 C19.0537276,0.427681401 24.5492534,5.91269099 24.5492534,12.6788196" id="Fill-4" fill="#212121"></path>
                    <path d="M21.6267232,12.6788196 C21.6267232,17.8336318 17.439322,22.0130201 12.2746267,22.0130201 C7.10993138,22.0130201 2.92253016,17.8336318 2.92253016,12.6788196 C2.92253016,7.52400735 7.10993138,3.34461907 12.2746267,3.34461907 C17.439322,3.34461907 21.6267232,7.52400735 21.6267232,12.6788196" id="Fill-6" fill="#F8F8F8"></path>
                </g>
            </g>
        </g>
    </g>
</svg>