<?xml version="1.0" encoding="UTF-8"?>
<svg width="25px" height="20px" viewBox="0 0 25 20" version="1.1" xmlns="http://www.w3.org/2000/svg" xmlns:xlink="http://www.w3.org/1999/xlink">
    <!-- Generator: Sketch 41.1 (35376) - http://www.bohemiancoding.com/sketch -->
    <title>Twitter_Logo_White_On_Blue</title>
    <desc>Created with Sketch.</desc>
    <defs></defs>
    <g id="Symbols" stroke="none" stroke-width="1" fill="none" fill-rule="evenodd">
        <g id="Author_Share_Category_Tags" transform="translate(0.000000, -365.000000)" fill="#212121">
            <g id="Group-2" transform="translate(0.000000, 311.000000)">
                <g id="Group-4" transform="translate(0.000000, 54.000000)">
                    <g id="Twitter_Logo_White_On_Blue">
                        <g id="Twitter_Logo_White-on-Blue">
                            <g id="Logo_FIXED">
                                <path d="M7.59764781,19.5436231 C16.7144386,19.5436231 21.7009386,12.0240213 21.7009386,5.50305647 C21.7009386,5.28947515 21.7009386,5.07685591 21.6864429,4.86519874 C22.6565214,4.16664434 23.4939095,3.30170593 24.159399,2.31088161 C23.2547543,2.70995327 22.2950948,2.97166435 21.3124554,3.08727857 C22.3471967,2.47056929 23.1216306,1.50059255 23.4916332,0.357863228 C22.5186448,0.932661854 21.4541707,1.33775125 20.3441467,1.55565036 C18.8076889,-0.0708442406 16.3662721,-0.468934513 14.3889025,0.584605706 C12.4115329,1.63814593 11.3899728,3.88130631 11.8970545,6.05625133 C7.91161924,5.85734125 4.19839696,3.98328421 1.68149417,0.900475231 C0.36589193,3.1552443 1.03787607,6.03976081 3.2160992,7.48782342 C2.42728632,7.46454839 1.655672,7.25270423 0.966375961,6.87016933 L0.966375961,6.9327044 C0.967021629,9.28170733 2.63023521,11.3049018 4.94301304,11.7700327 C4.21327317,11.9681631 3.44762412,11.9971257 2.70488632,11.8546955 C3.35424064,13.8648833 5.21511993,15.2419643 7.33575992,15.2816174 C5.58056512,16.6549183 3.41233103,17.4004285 1.17994505,17.3981891 C0.785570468,17.3974353 0.391579468,17.3736633 0,17.3269953 C2.26676619,18.7751888 4.90427432,19.5433507 7.59764781,19.5397748" id="Shape"></path>
                            </g>
                        </g>
                    </g>
                </g>
            </g>
        </g>
    </g>
</svg>